<svg width="428" height="359" viewBox="0 0 428 359" fill="none" xmlns="http://www.w3.org/2000/svg">
<path d="M-0.49707 367.135H427.503V0.000244141C340.81 122.638 147 127 -0.49707 0.000244141V191.074V367.135Z" fill="#0082AB"/>
<path d="M423.765 324.488H-0.999914L-0.99998 102.688V49.1505C-0.99998 49.1505 185.066 285.058 320.275 209.512C455.485 133.966 423.765 -50.9223 423.765 49.1505C423.765 149.223 423.765 324.488 423.765 324.488Z" fill="#1AA7D3"/>
<path d="M423.765 324.488H199.764H-0.999914L-0.99998 102.688C-0.99998 102.688 83.9991 159.559 175.983 209.512C232.471 240.189 268.833 238.254 320.275 209.512C455.485 133.966 423.765 -50.9223 423.765 49.1505C423.765 149.223 423.765 324.488 423.765 324.488Z" fill="#56BFE0"/>
<path d="M427.033 358.323H-0.966782V165.135C150.83 190.475 230.724 358.323 427.033 165.135V358.323Z" fill="#0082AB"/>
</svg>
