<svg width="428" height="322" viewBox="0 0 428 322" fill="none" xmlns="http://www.w3.org/2000/svg">
<path d="M-0.504883 29H428V322C277.726 230 165.144 212 -0.504883 322V178.116V29Z" fill="#0082AB"/>
<path d="M2.2387 0H427.505L427.505 196.918V244.45C427.505 244.45 241.22 35.0071 105.851 102.078C-29.5184 169.149 2.2389 305.726 2.23878 216.879C2.23866 128.033 2.2387 0 2.2387 0Z" fill="#1AA7D3"/>
<path d="M2.2387 0H226.504H427.505L427.505 196.918C427.505 196.918 342.405 146.428 250.313 102.078C193.758 74.8427 157.353 76.5601 105.851 102.078C-29.5184 169.149 2.2389 305.726 2.23878 216.879C2.23866 128.033 2.2387 0 2.2387 0Z" fill="#56BFE0"/>
<path d="M-0.504883 0H428V136.789C265.915 136.789 145.591 -29.1829 -0.504883 176V0Z" fill="#0082AB"/>
</svg>
