<svg width="26" height="27" viewBox="0 0 26 27" fill="none" xmlns="http://www.w3.org/2000/svg">
<path d="M9.22194 5.04404C7.99434 5.08631 6.88342 5.53071 6.28698 6.13769C6.01001 6.41957 5.56355 6.41707 5.28986 6.1322C5.0161 5.84739 5.0187 5.38795 5.29567 5.10607C6.2159 4.16966 7.70768 3.64423 9.1755 3.59365C10.6529 3.54276 12.2631 3.96796 13.3856 5.13665C13.6593 5.42153 13.6566 5.88097 13.3796 6.16277C13.1026 6.44458 12.6561 6.44201 12.3824 6.15713C11.6178 5.36101 10.4399 5.00208 9.22194 5.04404Z" fill="#0082AB"/>
<path fill-rule="evenodd" clip-rule="evenodd" d="M16.3441 15.6528C17.7017 14.0183 18.5266 11.9002 18.54 9.58239C18.5702 4.37366 14.4911 0.128247 9.42918 0.0999909C4.36721 0.0717345 0.239185 4.27134 0.208979 9.48006C0.178773 14.6888 4.25782 18.9342 9.31979 18.9625C11.5723 18.975 13.64 18.1504 15.2438 16.7722L14.9637 18.3731L20.2295 23.8537L23.1688 20.8635L17.903 15.3829L16.3441 15.6528ZM9.33241 16.786C13.2262 16.8078 16.4016 13.5773 16.4249 9.57058C16.4481 5.5639 13.3103 2.29817 9.41656 2.27643C5.52277 2.25469 2.34733 5.48519 2.3241 9.49187C2.30086 13.4985 5.43863 16.7643 9.33241 16.786Z" fill="#0082AB"/>
<path d="M21.2223 24.8854L24.1616 21.8952L25.1117 22.8842C25.6463 23.4406 25.6411 24.338 25.1001 24.8884L24.1203 25.8852C23.5792 26.4356 22.7072 26.4308 22.1725 25.8743L21.2223 24.8854Z" fill="#0082AB"/>
</svg>
