<svg width="29" height="29" viewBox="0 0 29 29" fill="none" xmlns="http://www.w3.org/2000/svg">
<path d="M14.8026 0.122795C6.98665 0.0788905 0.555355 6.3666 0.510815 14.0955C0.466276 21.8244 6.82469 28.1839 14.6406 28.2278C22.4565 28.2717 28.8878 21.984 28.9324 14.2551C28.9769 6.52625 22.6185 0.166699 14.8026 0.122795ZM23.9859 9.48447C24.6965 9.48846 25.2263 10.0184 25.9369 10.0224C25.3999 10.722 23.0907 10.7091 22.3852 9.8268C22.9191 9.65414 23.2754 9.48048 23.9859 9.48447ZM2.28716 14.1055C2.29121 13.4028 2.29526 12.7002 2.47796 11.8229C2.65559 11.8239 2.83221 12.0006 3.00985 12.0016C3.00985 12.0016 3.18647 12.1782 3.18546 12.3539C3.18242 12.8809 3.7133 13.2352 4.06857 13.2372C5.48864 13.4208 6.01446 14.6534 7.25588 15.0117C7.61013 15.1893 7.43047 15.5396 7.25081 15.89C6.17691 17.2892 7.05901 18.3482 7.94212 19.2314C8.82624 19.939 8.8222 20.6417 8.99376 21.6966C8.98667 22.9262 9.15621 24.3324 9.68203 25.565C5.2533 23.4322 2.25781 19.1995 2.28716 14.1055ZM14.6507 26.4713C13.4073 26.4643 11.9872 26.2806 10.9234 25.9233C10.7478 25.571 10.7499 25.2197 10.9295 24.8694C11.6482 23.4681 12.3658 22.2425 13.261 21.0179C13.6183 20.6686 13.9756 20.3193 13.9787 19.7923C13.9807 19.441 14.1614 18.915 14.341 18.5647C14.879 17.6894 14.7044 17.1615 13.9949 16.9818C12.5758 16.6225 11.8724 15.3889 10.8096 14.856C9.74681 14.323 8.68303 13.9657 7.79182 14.4877C7.43553 14.6614 6.90162 14.834 6.90465 14.3071C6.9087 13.6044 6.02357 13.0725 6.20525 12.3708C6.02762 12.3698 5.84998 12.3689 5.67133 12.5435C5.49269 12.7182 5.31404 12.8928 4.95978 12.7152C4.60654 12.3619 4.7862 12.0116 4.78822 11.6602C4.96788 11.3099 5.14653 11.1353 5.50281 10.9616C6.21436 10.7899 6.9249 10.7939 7.27511 11.6742C7.81712 10.0963 8.88799 9.224 9.95785 8.52736C9.95785 8.52736 11.386 7.30575 11.5636 7.30675C11.7413 7.30774 11.9169 7.66005 12.2712 7.83771C12.6264 7.8397 12.8041 7.8407 12.8061 7.48939C12.9888 6.6121 12.4619 5.55517 11.7524 5.37552C11.7534 5.19987 11.9311 5.20087 11.9311 5.20087C12.465 5.0282 13.1775 4.68088 13.0029 4.15291C13.007 3.45029 12.2985 3.09498 11.5879 3.09099C11.2327 3.089 10.8774 3.087 10.5211 3.26066C9.80856 3.60798 8.91836 3.95431 7.85255 3.94832C9.81463 2.55405 12.3056 1.86539 14.7925 1.87936L16.2135 1.88734C15.1467 2.05701 14.0789 2.40234 13.3663 2.74966C14.4311 2.9313 14.6057 3.45927 14.2454 4.33555C14.0657 4.68587 14.2413 5.03818 14.5956 5.21583C14.9498 5.39348 15.3051 5.39548 15.4848 5.04516C15.8431 4.52019 16.5546 4.34853 17.0885 4.17586C17.8001 4.0042 18.335 3.65588 18.872 2.95625C18.873 2.78059 19.0506 2.78159 19.2293 2.60693C20.2931 2.96423 21.3548 3.67284 22.4166 4.38145C22.2389 4.38046 22.2379 4.55611 22.0603 4.55512C21.703 4.90443 21.1691 5.0771 21.6979 5.78271C21.8736 6.13503 21.6949 6.30968 21.5163 6.48434C21.16 6.658 20.9834 6.48135 20.8067 6.30469C20.6301 6.12804 20.6321 5.77673 20.0992 5.77373C19.9196 6.12405 19.3857 6.29671 19.3826 6.82368C20.2708 6.82867 20.0891 7.5303 20.2637 8.05826C19.1969 8.22793 18.8386 8.75291 19.3664 9.63418C19.542 9.98649 19.1857 10.1602 19.0071 10.3348C18.2905 11.3848 17.5759 12.0834 17.5688 13.313C17.5617 14.5426 18.4428 15.7772 19.8649 15.6095C21.4646 15.4428 21.4646 15.4428 21.9894 16.8511C21.9884 17.0267 22.165 17.2034 22.164 17.379C22.3396 17.7313 22.5153 18.0837 22.3356 18.434C21.7946 19.8362 22.4991 20.8942 23.0259 21.9511C23.2015 22.3034 23.3781 22.48 23.5547 22.6567C21.2313 25.1029 18.2034 26.4912 14.6507 26.4713Z" fill="#4B4B4B"/>
</svg>
