<svg width="30" height="29" viewBox="0 0 30 29" fill="none" xmlns="http://www.w3.org/2000/svg">
<path d="M14.7122 0.120987C6.71634 0.0780772 0.136179 6.36741 0.0895658 14.0973C0.0429529 21.8272 6.54684 28.1867 14.5427 28.2296C22.5385 28.2725 29.1186 21.9832 29.1652 14.2533C29.2119 6.52345 22.708 0.163898 14.7122 0.120987ZM24.1056 9.48269C24.8325 9.48659 25.3745 10.0165 26.1014 10.0204C25.552 10.7202 23.1896 10.7076 22.468 9.82527C23.0142 9.65251 23.3787 9.47878 24.1056 9.48269ZM1.9068 14.107C1.91103 13.4043 1.91527 12.7016 2.10229 11.8242C2.28401 11.8252 2.46468 12.0018 2.6464 12.0028C2.6464 12.0028 2.82706 12.1794 2.826 12.3551C2.82283 12.8822 3.36588 13.2364 3.72932 13.2384C5.18205 13.4219 5.7198 14.6546 6.98974 15.0127C7.35213 15.1904 7.16829 15.5408 6.98445 15.8911C5.88563 17.2907 6.78789 18.3497 7.69121 19.2329C8.59559 19.9405 8.59135 20.6432 8.76672 21.6983C8.7593 22.928 8.93255 24.3345 9.4703 25.5671C4.93994 23.4346 1.87607 19.2017 1.9068 14.107ZM14.5532 26.4728C13.2812 26.466 11.8285 26.2825 10.7402 25.9253C10.5606 25.573 10.5628 25.2216 10.7466 24.8712C11.482 23.4697 12.2163 22.2439 13.1323 21.019C13.4979 20.6696 13.8634 20.3202 13.8666 19.7931C13.8687 19.4418 14.0536 18.9157 14.2375 18.5653C14.7879 17.6899 14.6094 17.1618 13.8836 16.9823C12.4319 16.6231 11.7124 15.3895 10.6253 14.8566C9.5381 14.3237 8.44988 13.9665 7.53809 14.4886C7.17358 14.6624 6.62736 14.8351 6.63053 14.3081C6.63477 13.6054 5.72933 13.0734 5.9153 12.3717C5.73357 12.3707 5.55185 12.3698 5.36907 12.5445C5.18628 12.7192 5.0035 12.8939 4.64112 12.7162C4.27979 12.3629 4.46363 12.0125 4.46575 11.6612C4.64959 11.3108 4.83237 11.1361 5.19688 10.9624C5.92483 10.7906 6.65172 10.7945 7.00987 11.6748C7.56457 10.0967 8.66021 9.22411 9.75478 8.52725C9.75478 8.52725 11.216 7.3053 11.3977 7.30627C11.5794 7.30725 11.759 7.65958 12.1214 7.83721C12.4849 7.83916 12.6666 7.84013 12.6687 7.48878C12.8557 6.61136 12.3169 5.55436 11.5911 5.37478C11.5921 5.1991 11.7739 5.20007 11.7739 5.20007C12.3201 5.02732 13.0491 4.67986 12.8706 4.15185C12.8748 3.44914 12.15 3.09388 11.4231 3.08998C11.0597 3.08803 10.6962 3.08607 10.3317 3.2598C9.60272 3.60726 8.69199 3.95374 7.60165 3.94789C9.60908 2.55319 12.1574 1.86412 14.7016 1.87778L16.1553 1.88558C15.0639 2.05541 13.9715 2.40091 13.2425 2.74837C14.3318 2.9299 14.5103 3.45791 14.1416 4.33436C13.9577 4.68474 14.1373 5.03707 14.4997 5.2147C14.8621 5.39233 15.2255 5.39428 15.4094 5.0439C15.776 4.51881 16.504 4.34704 17.0502 4.17428C17.7781 4.0025 18.3254 3.65407 18.8748 2.95428C18.8759 2.7786 19.0576 2.77958 19.2404 2.60487C20.3286 2.96208 21.4147 3.67065 22.5008 4.37922C22.3191 4.37824 22.318 4.55392 22.1363 4.55295C21.7707 4.90235 21.2245 5.07511 21.7655 5.78075C21.9451 6.13308 21.7623 6.30779 21.5795 6.48249C21.215 6.65622 21.0343 6.47956 20.8537 6.30291C20.673 6.12626 20.6751 5.7749 20.1299 5.77197C19.9461 6.12235 19.3999 6.29511 19.3967 6.82214C20.3053 6.82702 20.1194 7.52876 20.2979 8.05677C19.2065 8.2266 18.8399 8.75169 19.3797 9.63301C19.5594 9.98534 19.1948 10.1591 19.0121 10.3338C18.2788 11.3839 17.5477 12.0828 17.5403 13.3125C17.5329 14.5423 18.4341 15.7769 19.8889 15.609C21.5255 15.4421 21.5255 15.4421 22.0622 16.8505C22.0611 17.0262 22.2418 17.2028 22.2407 17.3785C22.4203 17.7308 22.5999 18.0832 22.4161 18.4335C21.8624 19.836 22.583 20.894 23.1218 21.951C23.3014 22.3033 23.482 22.48 23.6627 22.6567C21.2855 25.1035 18.1877 26.4923 14.5532 26.4728Z" fill="#0082AB"/>
</svg>
