<svg width="24" height="24" viewBox="0 0 24 24" fill="none" xmlns="http://www.w3.org/2000/svg">
<path fill-rule="evenodd" clip-rule="evenodd" d="M16.3441 15.6528C17.7017 14.0183 18.5266 11.9002 18.54 9.58239C18.5702 4.37366 14.4911 0.128247 9.42918 0.0999909C4.36721 0.0717345 0.239185 4.27134 0.208979 9.48006C0.178773 14.6888 4.25782 18.9342 9.31979 18.9625C11.5723 18.975 13.64 18.1504 15.2438 16.7722L14.9637 18.3731L20.2295 23.8537L23.1688 20.8635L17.903 15.3829L16.3441 15.6528ZM9.33241 16.786C13.2262 16.8078 16.4016 13.5773 16.4249 9.57058C16.4481 5.5639 13.3103 2.29817 9.41656 2.27643C5.52277 2.25469 2.34733 5.48519 2.3241 9.49187C2.30086 13.4985 5.43863 16.7643 9.33241 16.786Z" fill="#4B4B4B"/>
</svg>
