<svg width="21" height="17" viewBox="0 0 21 17" fill="none" xmlns="http://www.w3.org/2000/svg">
<path d="M10.5351 0.133626C4.84487 0.101862 0.22156 3.71733 0.195453 8.21933C0.185671 9.90612 0.80895 11.4569 1.88952 12.7542C3.46671 14.6244 5.97338 15.9529 8.89742 16.3066C9.39694 16.3792 9.91136 16.417 10.4407 16.4199C10.97 16.4229 11.4848 16.3909 11.9852 16.3239C14.9131 16.0028 17.435 14.7023 19.0338 12.8499C20.1294 11.5647 20.7706 10.021 20.7804 8.33423C20.8065 3.83223 16.2254 0.165389 10.5351 0.133626ZM14.9887 8.04597L13.7627 9.0047C13.5559 9.16642 13.4364 9.47985 13.5086 9.71292L13.8545 10.9131C14.1284 11.8569 13.494 12.2257 12.4383 11.7195L10.9719 11.025C10.708 10.8955 10.2669 10.8931 10.0015 11.0196L8.52714 11.6977C7.46566 12.1804 6.8355 11.8162 7.12033 10.8755L7.48016 9.67927C7.54026 9.45857 7.43922 9.13227 7.23432 8.96826L5.99012 7.99574C5.27295 7.42169 5.51151 6.85299 6.51209 6.7306L8.08658 6.52999C8.35145 6.49657 8.6613 6.31216 8.78001 6.12669L9.65548 4.75883C10.1303 4.01694 10.8949 4.02121 11.3611 4.76835L12.2206 6.1459C12.3372 6.33268 12.6449 6.52054 12.924 6.55699L14.4961 6.77517C15.4805 6.90864 15.7124 7.47997 14.9887 8.04597Z" fill="#4B4B4B"/>
</svg>
