<svg width="26" height="27" viewBox="0 0 26 27" fill="none" xmlns="http://www.w3.org/2000/svg">
<path d="M13.2517 0.0489123C12.7913 0.0453139 12.3317 0.157115 11.925 0.385816C9.31394 1.84812 6.44149 3.60498 3.45202 5.31597C3.45004 5.31727 3.44807 5.31858 3.4461 5.31989C1.97598 6.1756 0.784566 7.51958 0.579717 9.13944V9.1414C0.0947976 13.0269 0.308378 16.9207 1.21844 20.7998C1.22035 20.8064 1.22232 20.8129 1.22436 20.8194C1.49599 21.8846 2.1508 22.8573 2.96311 23.6772C3.77543 24.4972 4.74665 25.1648 5.81964 25.4499C5.82619 25.4519 5.83276 25.4539 5.83936 25.4558C10.7017 26.6462 15.5889 26.6462 20.4512 25.4558C20.4578 25.4539 20.4644 25.4519 20.4709 25.4499C21.5439 25.1648 22.5152 24.4974 23.3275 23.6772C24.1397 22.857 24.7952 21.8834 25.0662 20.8175C25.0676 20.8116 25.0689 20.8057 25.0702 20.7998C25.9823 16.9145 26.1969 13.0154 25.7089 9.12377L25.7069 9.12181C25.5022 7.51502 24.3262 6.17853 22.8701 5.31989C22.8681 5.31858 22.8662 5.31727 22.8642 5.31597C19.9411 3.61999 17.1333 1.87445 14.5765 0.403445C14.1729 0.170775 13.7121 0.0525108 13.2517 0.0489123ZM13.2379 2.0292C13.3375 2.03015 13.438 2.06669 13.5632 2.13889C16.0754 3.58425 18.8897 5.33171 21.8469 7.0475C22.8696 7.65298 23.615 8.68416 23.704 9.37253C24.1621 13.0254 23.9638 16.6688 23.1067 20.3278C22.9632 20.8894 22.5008 21.6524 21.8883 22.2709C21.2759 22.8893 20.5174 23.36 19.9525 23.5107C19.1986 23.6948 18.4478 23.6639 17.6952 23.7869C18.1368 21.2579 18.1496 18.6333 17.6085 16.1302C17.6088 16.0531 17.6002 15.9762 17.5829 15.901C17.5767 15.874 17.5695 15.8472 17.5612 15.8207C17.5599 15.8155 17.5586 15.8103 17.5572 15.805C17.5547 15.7972 17.5521 15.7893 17.5493 15.7815C17.5468 15.775 17.5442 15.7685 17.5415 15.762C17.5319 15.7374 17.5214 15.7132 17.5099 15.6895C17.4956 15.6593 17.4798 15.6299 17.4626 15.6013C17.3709 15.4467 17.2392 15.3193 17.081 15.2324C16.9229 15.1456 16.7442 15.1026 16.5637 15.1077C14.3814 14.1643 11.9486 14.1713 9.76634 15.1117C9.52379 15.0945 9.28314 15.1649 9.08865 15.3099C8.89415 15.4549 8.75888 15.6648 8.70771 15.901C8.7065 15.9061 8.70695 15.9116 8.70574 15.9167C8.6906 15.9849 8.68267 16.0545 8.68208 16.1243V16.1282C8.14056 18.6319 8.15369 21.2573 8.59534 23.7869C7.84279 23.6639 7.09197 23.6948 6.33811 23.5107C5.77311 23.36 5.01488 22.8893 4.40222 22.2709C3.79072 21.6536 3.32864 20.8928 3.18391 20.3317C2.32847 16.6785 2.12773 13.0371 2.58264 9.39016V9.3882C2.67133 8.69348 3.43289 7.65154 4.46728 7.04946C7.48768 5.32056 10.3586 3.56354 12.9166 2.13106H12.9186C13.0398 2.06291 13.1384 2.02826 13.2379 2.0292ZM13.1453 16.3045C14.0121 16.3029 14.8586 16.5626 15.6746 16.9019C16.13 19.2401 16.135 21.7103 15.647 24.0376C13.9804 24.1876 12.3102 24.1876 10.6436 24.0376C10.1564 21.7142 10.1609 19.2485 10.614 16.9137C11.4292 16.5702 12.2771 16.3061 13.1453 16.3045Z" fill="#4B4B4B"/>
</svg>
